HIERARCHY
ROOT Hips
{
	OFFSET	0.000000	0.000000	0.000000
	CHANNELS 6 Xposition Yposition Zposition Zrotation Xrotation Yrotation
	JOINT LeftUpLeg
	{
		OFFSET	12.811937	-7.635976	0.557276
		CHANNELS 3 Zrotation Xrotation Yrotation
		JOINT LeftLeg
		{
			OFFSET	-0.429270	-42.206163	-1.204951
			CHANNELS 3 Zrotation Xrotation Yrotation
			JOINT LeftFoot
			{
				OFFSET	-2.112259	-42.464481	-3.973220
				CHANNELS 3 Zrotation Xrotation Yrotation
				JOINT LeftFootHeel
				{
					OFFSET	0.387196	-5.329707	-3.419729
					CHANNELS 3 Zrotation Xrotation Yrotation
					End Site
					{
						OFFSET	0.327567	-0.000003	16.505428
					}
				}
			}
		}
	}
	JOINT RightUpLeg
	{
		OFFSET	-12.811937	-7.635976	0.557276
		CHANNELS 3 Zrotation Xrotation Yrotation
		JOINT RightLeg
		{
			OFFSET	0.429270	-42.206163	-1.204951
			CHANNELS 3 Zrotation Xrotation Yrotation
			JOINT RightFoot
			{
				OFFSET	2.112259	-42.464481	-3.973220
				CHANNELS 3 Zrotation Xrotation Yrotation
				JOINT RightFootHeel
				{
					OFFSET	-0.387198	-5.329707	-3.419729
					CHANNELS 3 Zrotation Xrotation Yrotation
					End Site
					{
						OFFSET	-0.327566	-0.000003	16.505428
					}
				}
			}
		}
	}
	JOINT Spine
	{
		OFFSET	0.000000	13.731316	-1.007646
		CHANNELS 3 Zrotation Xrotation Yrotation
		JOINT Spine1
		{
			OFFSET	0.000000	12.091746	-0.604589
			CHANNELS 3 Zrotation Xrotation Yrotation
			JOINT LeftShoulder
			{
				OFFSET	5.746115	20.990027	-0.833816
				CHANNELS 3 Zrotation Xrotation Yrotation
				JOINT LeftArm
				{
					OFFSET	10.881538	-1.359258	0.219250
					CHANNELS 3 Zrotation Xrotation Yrotation
					JOINT LeftForeArm
					{
						OFFSET	4.390314	-31.537147	0.202818
						CHANNELS 3 Zrotation Xrotation Yrotation
						JOINT LeftHand
						{
							OFFSET	3.168650	-24.865025	5.373370
							CHANNELS 3 Zrotation Xrotation Yrotation
							End Site
							{
								OFFSET	1.457528	-10.806075	2.170267
							}
						}
					}
				}
			}
			JOINT RightShoulder
			{
				OFFSET	-5.746115	20.990027	-0.833816
				CHANNELS 3 Zrotation Xrotation Yrotation
				JOINT RightArm
				{
					OFFSET	-10.881538	-1.359258	0.219250
					CHANNELS 3 Zrotation Xrotation Yrotation
					JOINT RightForeArm
					{
						OFFSET	-4.390314	-31.537147	0.202818
						CHANNELS 3 Zrotation Xrotation Yrotation
						JOINT RightHand
						{
							OFFSET	-3.168650	-24.865025	5.373370
							CHANNELS 3 Zrotation Xrotation Yrotation
							End Site
							{
								OFFSET	-1.457528	-10.806075	2.170267
							}
						}
					}
				}
			}
			JOINT Neck
			{
				OFFSET	0.000000	27.075639	0.680489
				CHANNELS 3 Zrotation Xrotation Yrotation
				JOINT Head
				{
					OFFSET	0.000000	12.391288	1.239129
					CHANNELS 3 Zrotation Xrotation Yrotation
					End Site
					{
						OFFSET	0.000000	13.818692	-0.105853
					}
				}
			}
		}
	}
}
MOTION
Frames:    10
Frame Time: 0.016667
0.000000	100.130166	0.000000	2.037085	0.500380	75.266464	-4.689329	1.940735	-6.348393	1.993382	0.516873	0.034771	0.652098	0.750759	10.081005	0.	0.	0.	1.198587	4.233498	5.403727	-0.110228	-2.635566	-21.885046	-1.573063	-0.771413	-6.370078	0.	0.	0.	0.000000	-0.000000	0.000001	-0.669674	7.072638	4.834172	-1.064015	0.604458	-2.726528	5.473226	-2.403769	-9.790856	-4.833329	-2.239473	-4.784132	3.529541	-1.239342	-8.830963	1.025115	3.557736	-4.139002	-0.955667	-4.471209	6.179037	3.355346	-0.110345	-0.592801	-0.577563	-4.724659	12.510717	-1.760751	2.037154	-2.041193	5.466551	-7.435605	3.622224	
-0.005040	100.130418	0.000771	2.037085	0.500380	75.266464	-4.689329	1.940735	-6.348393	1.993382	0.516873	0.034771	0.652098	0.750759	10.081005	0.	0.	0.	1.201300	4.227138	5.402651	-0.112281	-2.628980	-21.884155	-1.573063	-0.771413	-6.370078	0.	0.	0.	0.000000	-0.000000	0.000001	-0.669633	7.093209	4.834950	-1.061455	0.629643	-2.725016	5.466322	-2.424247	-9.791770	-4.829253	-2.254205	-4.786315	3.535393	-1.248310	-8.828093	1.022703	3.556769	-4.133403	-0.953500	-4.471025	6.168917	3.365972	-0.122707	-0.585039	-0.591031	-4.731493	12.507874	-1.758031	2.029397	-2.043174	5.462778	-7.448361	3.623866	
-0.030903	100.132055	0.002099	2.036164	0.505868	75.308136	-4.681001	1.915810	-6.388513	1.978603	0.541350	0.031900	0.652098	0.750759	10.081005	0.	0.	0.	1.208323	4.202724	5.357337	-0.119119	-2.606979	-21.881182	-1.573063	-0.771413	-6.370078	0.	0.	0.	-0.000000	0.000001	-0.000000	-0.669355	7.151626	4.795243	-1.057900	0.630397	-2.717272	5.458510	-2.476851	-9.798118	-4.856081	-2.229074	-4.771140	3.506282	-1.205998	-8.687701	1.020884	3.545970	-4.102321	-0.954196	-4.465756	6.124945	3.397018	-0.156119	-0.563171	-0.629957	-4.751223	12.499643	-1.749392	2.008820	-2.049062	5.476696	-7.484364	3.655226	
-0.034674	100.132404	0.001583	2.035779	0.508145	75.325539	-4.671447	1.893833	-6.404607	1.965119	0.562354	0.029474	0.652098	0.750759	10.081005	0.	0.	0.	1.207495	4.201407	5.339918	-0.119119	-2.606979	-21.881182	-1.573063	-0.771413	-6.370078	0.	0.	0.	0.000000	0.000000	0.000000	-0.669168	7.186639	4.779054	-1.051500	0.618414	-2.699321	5.443152	-2.469729	-9.819173	-4.862049	-2.231934	-4.772958	3.522473	-1.233943	-8.671824	1.020015	3.543017	-4.081579	-0.954784	-4.467038	6.096671	3.416595	-0.174475	-0.550197	-0.654092	-4.763458	12.494532	-1.740276	2.008341	-2.053057	5.477928	-7.507658	3.685729	
-0.039767	100.132888	0.000889	2.035240	0.511219	75.349060	-4.659266	1.883380	-6.428216	1.949746	0.571744	0.028734	0.652098	0.750759	10.081005	0.	0.	0.	1.206383	4.199612	5.316370	-0.119119	-2.606979	-21.881182	-1.573063	-0.771413	-6.370078	0.	0.	0.	0.000000	-0.000000	-0.000001	-0.669014	7.193170	4.755618	-1.041620	0.629944	-2.676204	5.428965	-2.472283	-9.842815	-4.864351	-2.232778	-4.777264	3.526439	-1.228058	-8.651752	1.021434	3.566661	-4.061243	-0.955438	-4.471657	6.070359	3.429475	-0.191821	-0.539990	-0.670780	-4.771914	12.490990	-1.727828	2.038738	-2.055237	5.480134	-7.504852	3.708995	
-0.039767	100.132888	0.000889	2.035240	0.511219	75.349060	-4.659266	1.883380	-6.428216	1.949746	0.571744	0.028734	0.652098	0.750759	10.081005	0.	0.	0.	1.206383	4.199612	5.316370	-0.119119	-2.606979	-21.881182	-1.573063	-0.771413	-6.370078	0.	0.	0.	0.000000	-0.000000	-0.000001	-0.669014	7.193170	4.755618	-1.041620	0.629944	-2.676204	5.428965	-2.472283	-9.842815	-4.864351	-2.232778	-4.777264	3.526439	-1.228058	-8.651752	1.022415	3.581575	-4.051441	-0.955963	-4.480654	6.059093	3.428682	-0.197474	-0.538510	-0.670780	-4.771914	12.490990	-1.721607	2.056833	-2.056035	5.474876	-7.523018	3.711333	
-0.050536	100.133896	-0.000570	2.034072	0.517716	75.398804	-4.640961	1.872803	-6.478656	1.927355	0.580737	0.042883	0.650844	0.750817	10.066400	0.	0.	0.	1.204036	4.195796	5.266572	-0.119119	-2.606979	-21.881182	-1.573063	-0.771413	-6.370078	0.	0.	0.	0.000000	0.000000	0.000001	-0.668726	7.190980	4.705461	-1.020608	0.668012	-2.629216	5.407850	-2.515568	-9.886189	-4.864351	-2.232778	-4.777264	3.523705	-1.181037	-8.656186	1.025347	3.626351	-4.022023	-0.958120	-4.525023	6.028650	3.428682	-0.197474	-0.538510	-0.670780	-4.771914	12.490990	-1.702956	2.109891	-2.051794	5.429636	-7.462939	3.721044	
-0.057131	100.133179	-0.002154	2.032243	0.515854	75.428993	-4.637712	1.873948	-6.508852	1.928992	0.580488	0.059438	0.649424	0.750880	10.049827	0.	0.	0.	1.208807	4.193528	5.239611	-0.119534	-2.606615	-21.884468	-1.573063	-0.771413	-6.370078	0.	0.	0.	-0.000000	0.000001	0.000000	-0.662656	7.190031	4.675034	-1.009970	0.687318	-2.605407	5.397136	-2.537505	-9.908178	-4.864351	-2.232778	-4.777264	3.538300	-1.177804	-8.702330	1.027359	3.657285	-4.001698	-0.961365	-4.554521	6.013052	3.430266	-0.199134	-0.543993	-0.670780	-4.771914	12.490990	-1.689091	2.146572	-2.034053	5.399685	-7.439217	3.711960	
-0.066282	100.132675	-0.003618	2.030245	0.514979	75.466682	-4.634585	1.876258	-6.536352	1.930278	0.578867	0.065578	0.648026	0.750944	10.033487	0.	0.	0.	1.214320	4.189481	5.217215	-0.121493	-2.604924	-21.899908	-1.573063	-0.771413	-6.370078	0.	0.	0.	0.000000	0.000001	-0.000000	-0.656527	7.194301	4.637267	-0.999245	0.702130	-2.580664	5.383017	-2.545567	-9.932819	-4.857275	-2.227835	-4.775710	3.558743	-1.193090	-8.766925	1.029007	3.684425	-3.980349	-0.971774	-4.580982	6.018505	3.452720	-0.200322	-0.568868	-0.699930	-4.770628	12.525915	-1.677478	2.176139	-2.036009	5.374760	-7.414882	3.722201	
-0.070874	100.133063	-0.003883	2.029812	0.517335	75.484612	-4.635753	1.877441	-6.546569	1.930865	0.577694	0.066319	0.647301	0.750979	10.025002	0.	0.	0.	1.214300	4.187172	5.208396	-0.122665	-2.603913	-21.909115	-1.573063	-0.771413	-6.370078	0.	0.	0.	-0.000000	0.000001	0.000000	-0.656371	7.204198	4.619578	-0.994455	0.701851	-2.568487	5.375684	-2.548955	-9.945448	-4.852676	-2.225007	-4.774495	3.569235	-1.201902	-8.802362	1.029167	3.690380	-3.969645	-0.979212	-4.592260	6.027904	3.467726	-0.202871	-0.587798	-0.721232	-4.768168	12.555657	-1.672965	2.181173	-2.037430	5.363489	-7.403351	3.726934	
